<svg width="40" height="35" viewBox="0 0 40 35" fill="none" xmlns="http://www.w3.org/2000/svg">
<path d="M1.46 0.625493C1.64336 0.316252 1.92889 0.101236 2.25378 0.0277276C2.57867 -0.045781 2.91633 0.0282369 3.1925 0.233505L6.9425 3.03622C7.20776 3.24686 7.38928 3.56498 7.44855 3.92307C7.50782 4.28115 7.44016 4.651 7.25994 4.95413C7.07971 5.25726 6.80111 5.46981 6.48326 5.54666C6.16541 5.62351 5.83333 5.55861 5.5575 5.36574L1.8075 2.56583C1.53179 2.36003 1.34032 2.04005 1.27516 1.67622C1.21 1.31238 1.27648 0.934455 1.46 0.625493ZM20 0.0011123C17.0163 0.0011123 14.1548 1.32857 12.045 3.69145C9.93526 6.05433 8.75 9.25909 8.75 12.6007V19.3233L6.34 26.0795C6.26399 26.2919 6.23564 26.5219 6.25741 26.7495C6.27918 26.977 6.35042 27.1951 6.4649 27.3846C6.57937 27.5742 6.73358 27.7294 6.91403 27.8367C7.09449 27.944 7.29568 28.0002 7.5 28.0002H32.5C32.704 28 32.9049 27.9438 33.085 27.8367C33.2652 27.7295 33.4192 27.5746 33.5336 27.3854C33.648 27.1962 33.7194 26.9786 33.7414 26.7514C33.7634 26.5243 33.7355 26.2945 33.66 26.0823L31.25 19.3205V12.6007C31.25 9.25909 30.0647 6.05433 27.955 3.69145C25.8452 1.32857 22.9837 0.0011123 20 0.0011123ZM20 35C18.8913 35.0003 17.814 34.5879 16.9374 33.8277C16.0608 33.0674 15.4347 32.0024 15.1575 30.8001H24.8425C24.5653 32.0024 23.9392 33.0674 23.0626 33.8277C22.186 34.5879 21.1087 35.0003 20 35ZM36.8075 0.236305C37.0833 0.0434377 37.4154 -0.0214585 37.7333 0.0553902C38.0511 0.132239 38.3297 0.344783 38.5099 0.647913C38.6902 0.951043 38.7578 1.3209 38.6986 1.67898C38.6393 2.03706 38.4578 2.35518 38.1925 2.56583L34.4425 5.36574C34.1667 5.55861 33.8346 5.62351 33.5167 5.54666C33.1989 5.46981 32.9203 5.25726 32.7401 4.95413C32.5598 4.651 32.4922 4.28115 32.5514 3.92307C32.6107 3.56498 32.7922 3.24686 33.0575 3.03622L36.8075 0.236305ZM0 12.6007C0 12.2294 0.131696 11.8733 0.366117 11.6108C0.600537 11.3483 0.918479 11.2008 1.25 11.2008H5C5.33152 11.2008 5.64946 11.3483 5.88388 11.6108C6.1183 11.8733 6.25 12.2294 6.25 12.6007C6.25 12.972 6.1183 13.3281 5.88388 13.5906C5.64946 13.8532 5.33152 14.0007 5 14.0007H1.25C0.918479 14.0007 0.600537 13.8532 0.366117 13.5906C0.131696 13.3281 0 12.972 0 12.6007ZM38.75 11.2008C39.0815 11.2008 39.3995 11.3483 39.6339 11.6108C39.8683 11.8733 40 12.2294 40 12.6007C40 12.972 39.8683 13.3281 39.6339 13.5906C39.3995 13.8532 39.0815 14.0007 38.75 14.0007H35C34.6685 14.0007 34.3505 13.8532 34.1161 13.5906C33.8817 13.3281 33.75 12.972 33.75 12.6007C33.75 12.2294 33.8817 11.8733 34.1161 11.6108C34.3505 11.3483 34.6685 11.2008 35 11.2008H38.75Z" fill="black"/>
</svg>
